# xmcd
#
# Track frame offsets: 
#        150
#        13284
#        27151
#        40479
#        51328
#        64836
#        85334
#        98908
#        112662
#        122076
#        135243
#        148886
#        160153
#        169706
#        181080
#        190105
#        201079
#        216033
#        226550
#
# Disc length: 3234 seconds
#
# Revision: 0
# Processed by: cddbd v1.5.2PL0 Copyright (c) Steve Scherf et al.
# Submitted via: ExactAudioCopy v1.3
#
DISCID=fd0ca013
DTITLE=Paul Ansell's Number Nine - Money And Lies
DYEAR=2011
DGENRE=Country
TTITLE0=Money And Lies
TTITLE1=Train Of Love
TTITLE2=Baby Blue
TTITLE3=Lost
TTITLE4=Without Love
TTITLE5=Against The Wind
TTITLE6=Miss Lovin' You
TTITLE7=Catch A Rat
TTITLE8=She's The One
TTITLE9=How Do You Do
TTITLE10=Serenade
TTITLE11=I'm A Fool (To Want You)
TTITLE12=Unchained Melody
TTITLE13=Couldn't Let It Go
TTITLE14=Oh Oh In Love Again
TTITLE15=Star Light
TTITLE16=Red Light
TTITLE17=The Promised Land
TTITLE18=6 Strings Away
EXTD=
EXTT0=
EXTT1=
EXTT2=
EXTT3=
EXTT4=
EXTT5=
EXTT6=
EXTT7=
EXTT8=
EXTT9=
EXTT10=
EXTT11=
EXTT12=
EXTT13=
EXTT14=
EXTT15=
EXTT16=
EXTT17=
EXTT18=
PLAYORDER=
